<svg xmlns="http://www.w3.org/2000/svg" xmlns:xlink="http://www.w3.org/1999/xlink" version="1.1" x="0px" y="0px" viewBox="0 0 100 125" enable-background="new 0 0 100 100" xml:space="preserve"><path fill="#000000" d="M69.296,58.074c-0.104-0.354,0.103-0.725,0.457-0.826c0.354-0.1,0.724,0.105,0.825,0.459  c0.104,0.354-0.102,0.725-0.459,0.826C69.766,58.635,69.396,58.43,69.296,58.074z M68.041,63.426  c0.355-0.104,0.561-0.472,0.458-0.826c-0.101-0.354-0.47-0.56-0.824-0.459c-0.354,0.102-0.562,0.473-0.459,0.828  C67.316,63.322,67.688,63.525,68.041,63.426z M46.755,80.289c0.355-0.102,0.561-0.471,0.457-0.826  c-0.1-0.355-0.47-0.559-0.825-0.457s-0.559,0.471-0.458,0.826C46.031,80.186,46.4,80.393,46.755,80.289z M69.075,61.002  c0.354-0.1,0.558-0.471,0.456-0.826c-0.098-0.354-0.471-0.558-0.825-0.457c-0.354,0.102-0.56,0.473-0.457,0.826  S68.723,61.104,69.075,61.002z M65.137,67.857c0.102,0.355,0.473,0.561,0.828,0.459c0.354-0.102,0.559-0.471,0.457-0.826  c-0.1-0.355-0.471-0.559-0.824-0.457C65.242,67.131,65.036,67.503,65.137,67.857z M64.825,64.348c0.356-0.1,0.562-0.472,0.461-0.826  c-0.103-0.346-0.459-0.551-0.804-0.467l-0.5,0.527c-0.017,0.1-0.012,0.205,0.018,0.307C64.102,64.244,64.473,64.449,64.825,64.348z   M66.291,61.025c-0.26,0.303-0.52,0.605-0.785,0.904c0.113,0.027,0.23,0.027,0.352-0.002C66.214,61.824,66.418,61.455,66.291,61.025  z M64.551,69.502c-0.355,0.104-0.561,0.471-0.458,0.826c0.101,0.354,0.47,0.559,0.824,0.457c0.356-0.1,0.562-0.471,0.46-0.826  C65.273,69.605,64.904,69.402,64.551,69.502z M66.171,65.436c0.101,0.355,0.47,0.561,0.826,0.461  c0.353-0.104,0.56-0.473,0.457-0.828c-0.101-0.353-0.472-0.557-0.825-0.457C66.275,64.713,66.068,65.082,66.171,65.436z   M72.514,57.154c0.098,0.354,0.469,0.557,0.824,0.455c0.354-0.1,0.561-0.469,0.458-0.824s-0.471-0.561-0.825-0.459  S72.41,56.799,72.514,57.154z M68.812,66.109c-0.355,0.102-0.562,0.475-0.457,0.828c0.1,0.354,0.471,0.557,0.826,0.457  c0.353-0.102,0.557-0.473,0.455-0.828C69.537,66.215,69.165,66.01,68.812,66.109z M71.152,56.111  c0.354-0.102,0.561-0.471,0.459-0.826c-0.098-0.33-0.426-0.533-0.756-0.475c-0.174,0.279-0.353,0.555-0.528,0.842  C70.43,56.006,70.799,56.211,71.152,56.111z M73.689,50.393c-0.037-0.124-0.104-0.226-0.191-0.309  c-0.189,0.385-0.385,0.77-0.584,1.148c0.104,0.021,0.212,0.018,0.316-0.012C73.585,51.118,73.79,50.748,73.689,50.393z   M70.213,64.971c0.354-0.1,0.561-0.469,0.457-0.826c-0.1-0.354-0.47-0.559-0.824-0.459c-0.354,0.105-0.561,0.475-0.457,0.828  C69.486,64.869,69.857,65.074,70.213,64.971z M71.258,62.504c0.355-0.104,0.561-0.471,0.457-0.828  c-0.098-0.354-0.47-0.561-0.824-0.459c-0.354,0.104-0.56,0.473-0.457,0.828C70.534,62.398,70.902,62.604,71.258,62.504z   M72.199,53.641c0.355-0.098,0.56-0.47,0.458-0.824c-0.056-0.197-0.196-0.348-0.368-0.426c-0.217,0.387-0.436,0.77-0.661,1.152  C71.788,53.66,71.995,53.701,72.199,53.641z M72.291,60.08c0.354-0.1,0.561-0.471,0.457-0.824c-0.1-0.355-0.471-0.561-0.825-0.459  c-0.353,0.102-0.56,0.471-0.457,0.826C71.566,59.977,71.938,60.182,72.291,60.08z M62.747,69.238  c0.354-0.102,0.56-0.471,0.456-0.826c-0.098-0.354-0.471-0.561-0.824-0.457c-0.355,0.1-0.561,0.47-0.457,0.824  C62.021,69.135,62.395,69.34,62.747,69.238z M52.055,74.477c0.352-0.1,0.559-0.472,0.455-0.826  c-0.057-0.205-0.201-0.357-0.385-0.434c-0.307,0.191-0.609,0.383-0.922,0.57c-0.004,0.076,0.003,0.152,0.023,0.229  C51.327,74.371,51.695,74.578,52.055,74.477z M55.266,73.553c0.355-0.1,0.562-0.472,0.459-0.826  c-0.101-0.354-0.472-0.559-0.826-0.457c-0.353,0.102-0.56,0.471-0.455,0.824C54.545,73.449,54.913,73.654,55.266,73.553z   M73.545,54.73c0.1,0.357,0.469,0.56,0.824,0.459c0.355-0.102,0.561-0.471,0.459-0.824c-0.102-0.359-0.471-0.562-0.825-0.461  C73.648,54.004,73.441,54.375,73.545,54.73z M54.234,75.975c0.354-0.1,0.561-0.471,0.457-0.826c-0.1-0.354-0.471-0.561-0.823-0.457  c-0.356,0.1-0.562,0.473-0.46,0.826C53.512,75.873,53.881,76.078,54.234,75.975z M51.018,76.896c0.355-0.1,0.561-0.473,0.459-0.826  c-0.1-0.354-0.474-0.557-0.828-0.457c-0.354,0.098-0.56,0.471-0.456,0.826C50.295,76.793,50.665,76.998,51.018,76.896z   M47.802,77.82c0.353-0.102,0.559-0.471,0.457-0.826c-0.101-0.354-0.472-0.561-0.826-0.457c-0.354,0.102-0.559,0.47-0.458,0.824  C47.077,77.717,47.448,77.922,47.802,77.82z M49.146,78.908c0.101,0.355,0.473,0.561,0.826,0.459  c0.355-0.102,0.557-0.473,0.457-0.828c-0.099-0.354-0.47-0.557-0.827-0.457C49.25,78.184,49.045,78.557,49.146,78.908z   M48.834,75.398c0.246-0.07,0.421-0.271,0.47-0.502l-0.884,0.484C48.55,75.43,48.693,75.439,48.834,75.398z M52.361,77.988  c0.104,0.354,0.473,0.559,0.826,0.457c0.354-0.102,0.561-0.473,0.459-0.826c-0.104-0.355-0.473-0.561-0.826-0.457  C52.465,77.262,52.258,77.631,52.361,77.988z M56.312,71.08c0.357-0.1,0.562-0.471,0.461-0.824  c-0.022-0.068-0.053-0.133-0.088-0.188c-0.354,0.27-0.711,0.533-1.074,0.789C55.775,71.061,56.049,71.158,56.312,71.08z   M60.562,67.738c0.355-0.102,0.562-0.471,0.459-0.824c-0.03-0.113-0.094-0.211-0.168-0.291c-0.33,0.299-0.664,0.594-1.002,0.885  C60.016,67.717,60.292,67.816,60.562,67.738z M59.529,70.16c0.354-0.1,0.559-0.473,0.459-0.824  c-0.102-0.355-0.473-0.561-0.827-0.457c-0.354,0.1-0.56,0.471-0.458,0.824C58.805,70.059,59.177,70.262,59.529,70.16z   M60.877,71.248c0.1,0.357,0.471,0.562,0.824,0.463c0.355-0.104,0.561-0.473,0.458-0.828c-0.099-0.354-0.472-0.561-0.826-0.459  S60.773,70.895,60.877,71.248z M60.302,72.848c-0.356,0.1-0.561,0.471-0.46,0.824c0.102,0.355,0.473,0.561,0.826,0.457  c0.354-0.1,0.561-0.47,0.459-0.824C61.025,72.951,60.654,72.744,60.302,72.848z M56.036,76.238c-0.353,0.1-0.558,0.472-0.456,0.826  c0.102,0.355,0.472,0.561,0.824,0.457c0.354-0.1,0.56-0.473,0.459-0.826C56.762,76.34,56.393,76.137,56.036,76.238z M58.484,72.631  c0.353-0.102,0.56-0.472,0.457-0.826c-0.1-0.354-0.471-0.561-0.825-0.457c-0.354,0.102-0.56,0.471-0.458,0.826  C57.762,72.527,58.129,72.73,58.484,72.631z M56.627,74.596c0.1,0.354,0.473,0.559,0.825,0.457c0.356-0.1,0.562-0.471,0.459-0.826  c-0.101-0.354-0.474-0.559-0.828-0.459C56.729,73.869,56.525,74.24,56.627,74.596z M63.779,66.818  c0.354-0.102,0.559-0.473,0.457-0.828c-0.1-0.355-0.471-0.559-0.825-0.457s-0.56,0.473-0.457,0.828  C63.055,66.713,63.426,66.918,63.779,66.818z M78.158,44.122c-0.354,0.102-0.561,0.471-0.457,0.825  c0.102,0.355,0.472,0.561,0.826,0.459c0.354-0.102,0.56-0.472,0.457-0.826C78.883,44.225,78.516,44.021,78.158,44.122z   M77.127,46.545c-0.357,0.101-0.562,0.471-0.459,0.826c0.102,0.354,0.473,0.558,0.826,0.457c0.355-0.1,0.561-0.472,0.459-0.825  C77.852,46.646,77.48,46.443,77.127,46.545z M82.884,48.454c0.353-0.102,0.558-0.472,0.457-0.829  c-0.103-0.353-0.472-0.558-0.825-0.457c-0.354,0.1-0.561,0.472-0.459,0.827S82.527,48.554,82.884,48.454z M78.633,51.797  c0.354-0.102,0.561-0.472,0.458-0.826c-0.103-0.353-0.472-0.558-0.825-0.457c-0.354,0.1-0.562,0.473-0.459,0.826  C77.907,51.693,78.279,51.898,78.633,51.797z M80.803,53.344c0.355-0.1,0.561-0.471,0.459-0.826  c-0.101-0.354-0.472-0.559-0.826-0.455c-0.354,0.1-0.56,0.469-0.457,0.822C80.078,53.24,80.449,53.445,80.803,53.344z   M81.848,50.876c0.356-0.101,0.561-0.472,0.461-0.827c-0.104-0.355-0.475-0.56-0.828-0.457c-0.354,0.1-0.561,0.471-0.457,0.825  C81.125,50.77,81.496,50.975,81.848,50.876z M80.342,45.622c-0.355,0.1-0.559,0.47-0.457,0.825c0.1,0.355,0.471,0.559,0.825,0.458  c0.356-0.103,0.562-0.471,0.461-0.826C81.068,45.726,80.698,45.519,80.342,45.622z M79.77,55.764c0.356-0.1,0.562-0.469,0.461-0.824  c-0.104-0.354-0.474-0.559-0.826-0.459c-0.357,0.104-0.563,0.473-0.461,0.828C79.047,55.662,79.416,55.867,79.77,55.764z   M79.298,48.09c-0.353,0.102-0.56,0.472-0.457,0.826c0.099,0.355,0.472,0.561,0.824,0.458c0.354-0.103,0.56-0.472,0.458-0.826  C80.021,48.195,79.652,47.988,79.298,48.09z M74.105,60.295c-0.354,0.102-0.561,0.473-0.457,0.828  c0.103,0.354,0.473,0.559,0.826,0.457s0.56-0.473,0.457-0.828C74.831,60.398,74.459,60.195,74.105,60.295z M86.213,38.212  c0.102,0.354,0.473,0.56,0.827,0.458c0.354-0.103,0.56-0.472,0.458-0.826c-0.102-0.355-0.473-0.56-0.827-0.459  C86.316,37.487,86.109,37.857,86.213,38.212z M75.508,59.158c0.355-0.102,0.559-0.471,0.457-0.824  c-0.099-0.355-0.47-0.561-0.824-0.461c-0.354,0.104-0.56,0.473-0.459,0.826C74.784,59.055,75.152,59.262,75.508,59.158z   M88.084,36.199c0.355-0.102,0.559-0.473,0.458-0.827s-0.472-0.559-0.826-0.458c-0.354,0.104-0.557,0.472-0.457,0.827  C87.359,36.096,87.73,36.302,88.084,36.199z M81.375,43.199c-0.354,0.101-0.559,0.471-0.458,0.826  c0.103,0.355,0.472,0.558,0.825,0.457c0.355-0.1,0.562-0.47,0.46-0.825C82.1,43.303,81.73,43.098,81.375,43.199z M82.79,42.014  c0.353-0.102,0.56-0.473,0.457-0.827c-0.101-0.353-0.47-0.56-0.824-0.457c-0.354,0.1-0.562,0.471-0.46,0.825  C82.064,41.91,82.436,42.115,82.79,42.014z M76.557,56.689c0.354-0.102,0.557-0.473,0.457-0.828  c-0.101-0.35-0.472-0.559-0.826-0.455c-0.354,0.1-0.561,0.469-0.459,0.822C75.83,56.584,76.2,56.791,76.557,56.689z M77.585,54.266  c0.356-0.098,0.563-0.471,0.46-0.826c-0.102-0.352-0.472-0.557-0.827-0.455c-0.354,0.1-0.56,0.473-0.456,0.826  C76.861,54.164,77.232,54.367,77.585,54.266z M83.93,45.983c0.354-0.102,0.557-0.471,0.457-0.826  c-0.101-0.354-0.474-0.56-0.828-0.458c-0.353,0.1-0.56,0.471-0.457,0.825C83.202,45.88,83.574,46.085,83.93,45.983z M78.434,38.966  c0.355-0.1,0.562-0.47,0.461-0.825c-0.092-0.326-0.41-0.523-0.734-0.48c-0.18,0.308-0.348,0.632-0.5,0.974  C77.803,38.909,78.127,39.055,78.434,38.966z M77.391,41.437c0.353-0.103,0.559-0.472,0.455-0.826  c-0.09-0.325-0.41-0.524-0.734-0.477c-0.041,0.15-0.086,0.302-0.123,0.458l-0.188,0.733C76.962,41.451,77.18,41.498,77.391,41.437z   M78.748,42.479c0.102,0.353,0.47,0.559,0.826,0.457c0.355-0.103,0.558-0.472,0.457-0.826c-0.102-0.354-0.473-0.56-0.826-0.459  C78.852,41.755,78.645,42.124,78.748,42.479z M76.814,43.031c-0.058-0.199-0.198-0.352-0.377-0.427  c-0.127,0.423-0.262,0.848-0.397,1.266c0.101,0.023,0.212,0.02,0.317-0.012C76.711,43.757,76.916,43.386,76.814,43.031z   M75.768,45.502c-0.035-0.123-0.101-0.226-0.189-0.306c-0.139,0.387-0.284,0.775-0.436,1.158c0.056-0.002,0.109-0.01,0.168-0.025  C75.664,46.227,75.871,45.857,75.768,45.502z M74.59,52.262c0.102,0.354,0.471,0.559,0.825,0.457c0.354-0.1,0.56-0.469,0.457-0.824  c-0.099-0.355-0.47-0.562-0.824-0.461C74.693,51.537,74.488,51.906,74.59,52.262z M75.623,49.841  c0.102,0.352,0.473,0.557,0.827,0.456c0.353-0.099,0.557-0.471,0.457-0.826c-0.103-0.355-0.474-0.559-0.827-0.457  S75.52,49.484,75.623,49.841z M79.465,36.545c0.355-0.1,0.561-0.471,0.459-0.825c-0.014-0.054-0.035-0.103-0.062-0.15  c-0.313,0.278-0.61,0.587-0.889,0.924C79.118,36.572,79.294,36.594,79.465,36.545z M81.65,38.045  c0.354-0.102,0.561-0.473,0.459-0.827c-0.103-0.354-0.471-0.558-0.827-0.458c-0.353,0.1-0.558,0.472-0.457,0.826  C80.928,37.941,81.297,38.146,81.65,38.045z M84.868,37.122c0.353-0.102,0.559-0.471,0.457-0.826  c-0.103-0.355-0.47-0.561-0.825-0.458c-0.355,0.102-0.561,0.47-0.46,0.825C84.145,37.018,84.514,37.222,84.868,37.122z   M86.007,41.092c0.353-0.102,0.56-0.472,0.457-0.827c-0.103-0.354-0.471-0.56-0.825-0.458c-0.353,0.102-0.56,0.472-0.457,0.827  C85.283,40.989,85.65,41.193,86.007,41.092z M85.9,34.699c0.354-0.1,0.559-0.472,0.459-0.827c-0.051-0.171-0.162-0.308-0.307-0.392  c-0.224-0.008-0.443-0.01-0.664-0.004c-0.264,0.147-0.4,0.462-0.313,0.765C85.178,34.596,85.547,34.802,85.9,34.699z M84.961,43.561  c0.354-0.102,0.561-0.471,0.457-0.825c-0.102-0.355-0.473-0.563-0.827-0.459c-0.354,0.102-0.559,0.471-0.458,0.826  C84.234,43.459,84.605,43.663,84.961,43.561z M82.997,39.133c0.101,0.355,0.471,0.561,0.825,0.458  c0.355-0.104,0.559-0.471,0.457-0.827c-0.102-0.353-0.471-0.559-0.825-0.458C83.1,38.408,82.895,38.778,82.997,39.133z   M74.738,47.923c-0.029-0.093-0.073-0.177-0.135-0.247c-0.158,0.367-0.319,0.736-0.484,1.099c0.055-0.002,0.105-0.009,0.16-0.026  C74.635,48.647,74.838,48.279,74.738,47.923z M79.779,40.057c0.103,0.353,0.473,0.559,0.828,0.457  c0.353-0.101,0.556-0.472,0.457-0.826c-0.102-0.355-0.475-0.561-0.828-0.457C79.883,39.332,79.678,39.703,79.779,40.057z   M82.684,35.622c0.353-0.101,0.558-0.472,0.457-0.826c-0.102-0.354-0.473-0.558-0.826-0.458c-0.354,0.102-0.562,0.472-0.457,0.827  C81.959,35.518,82.329,35.724,82.684,35.622z M58.223,77.736c-0.354,0.102-0.56,0.473-0.459,0.828  c0.102,0.354,0.471,0.559,0.826,0.457c0.354-0.102,0.561-0.471,0.457-0.824C58.947,77.84,58.577,77.637,58.223,77.736z   M65.688,73.471c-0.354,0.104-0.56,0.471-0.457,0.826c0.102,0.354,0.473,0.561,0.824,0.457c0.353-0.102,0.559-0.469,0.457-0.824  C66.413,73.575,66.041,73.371,65.688,73.471z M68.592,69.037c-0.099-0.354-0.47-0.561-0.824-0.457  c-0.355,0.102-0.561,0.471-0.459,0.826c0.101,0.354,0.471,0.559,0.826,0.457C68.49,69.764,68.695,69.393,68.592,69.037z   M73.887,63.225c-0.099-0.354-0.472-0.561-0.826-0.457c-0.354,0.1-0.56,0.471-0.457,0.824c0.102,0.355,0.473,0.559,0.826,0.459  S73.986,63.579,73.887,63.225z M64.656,75.895c-0.355,0.1-0.563,0.471-0.459,0.826c0.104,0.354,0.472,0.559,0.826,0.457  c0.353-0.1,0.559-0.473,0.457-0.826C65.378,75.999,65.01,75.791,64.656,75.895z M69.951,70.078  c-0.355,0.102-0.561,0.472-0.461,0.826c0.103,0.357,0.475,0.559,0.828,0.459c0.354-0.102,0.561-0.471,0.457-0.828  C70.675,70.184,70.305,69.979,69.951,70.078z M68.906,72.549c-0.357,0.102-0.563,0.473-0.461,0.826  c0.104,0.355,0.474,0.559,0.826,0.457c0.354-0.102,0.561-0.471,0.459-0.824C69.629,72.652,69.259,72.447,68.906,72.549z   M52.928,83.551c-0.354,0.104-0.562,0.473-0.459,0.826c0.102,0.355,0.471,0.561,0.825,0.459s0.562-0.47,0.458-0.824  C53.65,83.656,53.282,83.449,52.928,83.551z M70.982,67.656c-0.354,0.1-0.562,0.472-0.457,0.826  c0.102,0.355,0.472,0.561,0.824,0.459c0.354-0.1,0.561-0.471,0.459-0.824C71.707,67.762,71.337,67.557,70.982,67.656z   M64.344,72.383c-0.1-0.355-0.472-0.562-0.826-0.459c-0.355,0.102-0.561,0.471-0.459,0.828c0.101,0.354,0.471,0.557,0.828,0.457  C64.24,73.107,64.447,72.736,64.344,72.383z M66.732,71.002c-0.355,0.102-0.561,0.473-0.459,0.826  c0.104,0.354,0.474,0.559,0.828,0.457s0.561-0.471,0.459-0.824C67.459,71.105,67.086,70.898,66.732,71.002z M56.146,82.629  c-0.356,0.102-0.562,0.473-0.461,0.826c0.102,0.355,0.471,0.559,0.824,0.457c0.355-0.102,0.562-0.471,0.459-0.826  C56.868,82.732,56.501,82.529,56.146,82.629z M55.831,79.119c-0.101-0.355-0.472-0.559-0.825-0.459  c-0.355,0.104-0.561,0.472-0.459,0.826c0.102,0.354,0.473,0.559,0.825,0.457C55.729,79.844,55.934,79.473,55.831,79.119z   M62.473,74.395c-0.354,0.102-0.562,0.469-0.459,0.824c0.102,0.355,0.471,0.562,0.825,0.459c0.353-0.1,0.56-0.471,0.456-0.826  C63.195,74.499,62.827,74.291,62.473,74.395z M53.961,81.131c-0.355,0.102-0.561,0.471-0.458,0.826  c0.101,0.354,0.47,0.559,0.824,0.459c0.356-0.104,0.56-0.473,0.458-0.828C54.686,81.234,54.312,81.029,53.961,81.131z   M57.177,80.205c-0.354,0.104-0.561,0.475-0.459,0.828c0.103,0.354,0.47,0.561,0.826,0.459c0.354-0.104,0.56-0.473,0.458-0.826  C57.9,80.311,57.531,80.105,57.177,80.205z M60.079,75.773c-0.099-0.353-0.47-0.558-0.824-0.457  c-0.354,0.102-0.562,0.473-0.459,0.826c0.103,0.355,0.474,0.557,0.827,0.457C59.975,76.502,60.182,76.129,60.079,75.773z   M61.438,76.814c-0.355,0.102-0.561,0.473-0.457,0.826c0.101,0.355,0.473,0.561,0.826,0.459c0.353-0.1,0.56-0.472,0.457-0.826  C62.163,76.918,61.791,76.714,61.438,76.814z M60.395,79.285c-0.355,0.102-0.561,0.471-0.459,0.826  c0.101,0.355,0.469,0.559,0.826,0.459c0.354-0.102,0.562-0.473,0.457-0.828C61.119,79.389,60.749,79.184,60.395,79.285z   M72.029,65.188c-0.355,0.102-0.562,0.471-0.459,0.824c0.104,0.357,0.471,0.562,0.824,0.461c0.356-0.102,0.562-0.473,0.461-0.828  C72.754,65.292,72.383,65.084,72.029,65.188z M86.775,43.777c-0.354,0.1-0.562,0.47-0.457,0.827  c0.102,0.353,0.472,0.558,0.824,0.458c0.356-0.102,0.561-0.472,0.461-0.827C87.5,43.88,87.13,43.676,86.775,43.777z M87.809,41.354  c-0.353,0.102-0.559,0.472-0.457,0.827c0.102,0.353,0.471,0.559,0.826,0.456c0.354-0.1,0.559-0.47,0.457-0.825  C88.534,41.458,88.163,41.253,87.809,41.354z M85.73,46.248c-0.355,0.1-0.562,0.471-0.459,0.825  c0.105,0.355,0.472,0.559,0.826,0.457c0.354-0.1,0.561-0.471,0.459-0.825C86.454,46.35,86.085,46.144,85.73,46.248z M84.697,48.666  c-0.355,0.104-0.559,0.474-0.459,0.828c0.102,0.354,0.474,0.561,0.828,0.459c0.352-0.102,0.559-0.472,0.455-0.825  C85.422,48.771,85.051,48.565,84.697,48.666z M74.199,66.736c-0.354,0.1-0.559,0.471-0.459,0.824  c0.103,0.355,0.474,0.561,0.826,0.459c0.354-0.1,0.561-0.473,0.457-0.826C74.924,66.84,74.555,66.635,74.199,66.736z M94.889,40.273  c-6.691,26.706-28.563,47.299-55.782,56.043c-8.305,2.668-14.498-2.09-16.65-8.269c-2.716,0.731-5.523,1.382-8.424,1.935  c-13.036,2.486-16.8-16.986-3.885-19.598c-0.401-5.035,2.08-10.242,8.51-12.31c18.339-5.894,31.184-19.119,34.931-34.071  c1.613-6.447,6.515-9.278,11.481-9.298c0.199-0.922,0.466-1.847,0.801-2.708l0.059-0.539c1.342-13.251,21.223-11.235,19.877,2.018  C85.449,17,84.913,20.478,84.2,23.889C91.094,25.126,97.16,31.211,94.889,40.273z M13.769,68.965c1.01-0.232,2.009-0.318,3.01-0.316  c0.271,0,0.538,0.008,0.809,0.018c3.491-0.959,6.773-2.096,9.856-3.391c0.396-0.553,0.835-1.07,1.378-1.486  c1.985-1.488,3.834-1.74,5.519-1.857c2.527-1.402,4.89-2.934,7.095-4.576c1.468-2.568,3.164-4.961,6.173-6.451  c0.327-0.162,0.982-0.396,1.799-0.685c2.708-2.911,5.068-6.05,7.096-9.384c0.077-2.539,0.551-5.388,3.036-8.051  c0.487-0.522,1.038-0.939,1.62-1.303c1.47-3.692,2.617-7.548,3.455-11.534c-0.035-0.458-0.043-0.991-0.02-1.568  c-3.341,0.178-6.369,2.195-7.451,6.518c-4.103,16.38-18.025,30.458-37.366,36.671C15.736,62.869,13.896,65.797,13.769,68.965z   M30.894,70.96c0.458-0.771,0.971-1.519,1.743-2.12c1.247-0.936,2.851-0.744,4.307-0.791c0.676-0.023,1.299-0.086,1.873-0.178  c1.79-0.836,3.518-1.736,5.18-2.701c2.585-2.834,3.129-6.965,6.434-8.6c2.391-1.195,5.583-1.938,8.16-3.293  c1.632-1.859,3.104-3.803,4.416-5.818c0.034-0.307,0.052-0.629,0.052-0.965c0-1.821-0.233-2.879-0.233-4.702  c0-2.332,0.229-3.497,1.341-4.688c1.227-1.308,3.081-1.866,4.704-2.666l0.165-0.645c0.633-2.524,1.729-4.539,3.122-6.088  c-0.439-5.25-2.65-8.457,0.351-14.86c1.135-2.413-2.486-4.11-3.617-1.697c-4.062,8.666-0.66,11.307-0.66,18.245  c0,1.395-5.707,3.617-6.982,4.98c-2.182,2.337-2.419,4.814-2.419,7.418c0,1.823,0.233,2.88,0.233,4.702  c0,3.864-7.686,5.132-10.415,6.5c-3.043,1.508-4.432,4.108-5.954,6.907c-3.96,7.287-7.348,1.91-12.46,5.744  c-1.528,1.176-3.5,5.278-4.961,5.492c-6.685,1.01-10.351-2.627-16.839,3.592c-1.924,1.844,0.84,4.729,2.766,2.885  c4.278-4.098,8.309-2.133,13.185-2.375C25.882,73.402,28.025,71.893,30.894,70.96z M91.282,35.283  c-0.349,0.088-0.707-0.116-0.806-0.463c-0.023-0.079-0.031-0.16-0.026-0.237c0.274,0.133,0.534,0.274,0.79,0.426  c-0.625-3.687-3.487-6.142-7.012-7.024c-4.754-1.189-9.797,0.711-11.314,6.783C68.439,52.623,53.26,67.973,32.176,74.746  c-5.956,1.914-7.524,7.07-6.027,11.736c1.219,3.795,4.281,6.674,8.59,6.58c0.141-0.039,0.257-0.039,0.367-0.016  c0.766-0.047,1.57-0.188,2.408-0.426c0.053-0.229,0.225-0.42,0.467-0.49c0.227-0.062,0.46-0.004,0.625,0.143  c0.736-0.242,1.472-0.496,2.197-0.758c0.086-0.146,0.223-0.258,0.395-0.307c0.139-0.041,0.283-0.031,0.41,0.014  c2.425-0.896,4.799-1.893,7.11-2.982c-0.238-0.047-0.44-0.223-0.512-0.473c-0.102-0.354,0.103-0.725,0.458-0.824  c0.355-0.104,0.726,0.104,0.826,0.459c0.05,0.172,0.026,0.35-0.051,0.496c0.674-0.324,1.338-0.656,2.002-0.998  c-0.121-0.408,0.084-0.777,0.438-0.879c0.285-0.08,0.577,0.033,0.732,0.264c2.164-1.152,4.269-2.391,6.303-3.709  c-0.113-0.398,0.091-0.768,0.443-0.869c0.234-0.066,0.476,0,0.643,0.154c1.137-0.76,2.254-1.547,3.348-2.361  c-0.093-0.08-0.16-0.186-0.195-0.311c-0.104-0.355,0.103-0.727,0.459-0.826c0.313-0.09,0.643,0.062,0.783,0.348  c1.094-0.844,2.166-1.713,3.215-2.602c-0.09-0.082-0.158-0.188-0.194-0.312c-0.103-0.354,0.103-0.725,0.459-0.826  c0.284-0.082,0.58,0.035,0.739,0.271c1.039-0.92,2.054-1.863,3.041-2.828c-0.078-0.342,0.125-0.688,0.469-0.785  c0.111-0.033,0.229-0.035,0.334-0.012c0.396-0.4,0.787-0.805,1.176-1.213l-0.097,0.037c-0.353,0.102-0.726-0.104-0.826-0.459  c-0.101-0.355,0.103-0.723,0.457-0.826c0.354-0.102,0.728,0.104,0.826,0.461c0.043,0.146,0.03,0.297-0.019,0.428  c1.027-1.104,2.028-2.23,2.989-3.389c-0.104-0.371,0.097-0.742,0.451-0.844c0.087-0.023,0.173-0.031,0.258-0.021  c0.306-0.379,0.604-0.76,0.902-1.143c-0.263-0.027-0.495-0.209-0.571-0.479c-0.104-0.354,0.104-0.728,0.458-0.825  c0.333-0.099,0.683,0.079,0.808,0.395c1.86-2.479,3.558-5.075,5.071-7.77c-0.11-0.392,0.095-0.759,0.448-0.861  c0.279-0.457,0.52-0.907,0.753-1.36c-0.076-0.076-0.132-0.172-0.165-0.283c-0.104-0.354,0.104-0.723,0.458-0.825  c0.095-0.027,0.188-0.031,0.274-0.021c0.197-0.396,0.392-0.798,0.58-1.199c-0.133-0.086-0.233-0.215-0.279-0.375  c-0.104-0.354,0.104-0.726,0.456-0.826c0.126-0.04,0.255-0.036,0.368,0c0.186-0.413,0.365-0.827,0.541-1.245  c-0.148-0.081-0.271-0.223-0.319-0.4c-0.103-0.354,0.104-0.725,0.457-0.826c0.124-0.037,0.25-0.034,0.368,0  c0.16-0.407,0.318-0.816,0.473-1.229c-0.123-0.083-0.223-0.21-0.266-0.368c-0.104-0.355,0.103-0.725,0.457-0.827  c0.084-0.022,0.171-0.029,0.254-0.021c0.158-0.455,0.316-0.914,0.47-1.372c-0.062-0.071-0.106-0.154-0.135-0.25  c-0.104-0.354,0.104-0.724,0.457-0.826c0.206-0.598,0.383-1.191,0.55-1.787l0.091-0.33c0.134-0.476,0.259-0.956,0.38-1.438  C91.376,37.841,91.449,36.498,91.282,35.283z M89.889,36.464c-0.354,0.101-0.562,0.472-0.459,0.827  c0.102,0.353,0.471,0.557,0.828,0.457c0.354-0.102,0.557-0.473,0.457-0.827C90.613,36.568,90.243,36.362,89.889,36.464z   M88.854,38.885c-0.354,0.101-0.562,0.47-0.457,0.825c0.104,0.355,0.472,0.561,0.824,0.459c0.355-0.101,0.562-0.471,0.461-0.825  C89.578,38.989,89.208,38.783,88.854,38.885z M83.652,51.137c-0.355,0.102-0.562,0.473-0.459,0.828  c0.103,0.354,0.472,0.561,0.824,0.457c0.355-0.102,0.561-0.471,0.457-0.826C84.375,51.238,84.006,51.035,83.652,51.137z   M82.619,53.561c-0.354,0.1-0.561,0.471-0.457,0.824c0.1,0.357,0.471,0.561,0.824,0.459c0.354-0.1,0.561-0.472,0.457-0.826  C83.346,53.664,82.973,53.457,82.619,53.561z M77.324,59.373c-0.354,0.102-0.561,0.473-0.458,0.826  c0.102,0.357,0.473,0.561,0.825,0.459s0.559-0.473,0.455-0.826C78.047,59.477,77.678,59.271,77.324,59.373z M76.279,61.844  c-0.357,0.102-0.562,0.471-0.461,0.826c0.104,0.355,0.474,0.559,0.828,0.457c0.354-0.102,0.559-0.471,0.457-0.824  C77.003,61.947,76.633,61.742,76.279,61.844z M75.246,64.266c-0.355,0.102-0.561,0.473-0.457,0.826  c0.1,0.354,0.47,0.561,0.824,0.457c0.354-0.098,0.561-0.471,0.457-0.826C75.971,64.37,75.6,64.164,75.246,64.266z M79.184,57.41  c-0.104-0.355-0.475-0.559-0.828-0.457s-0.562,0.47-0.457,0.824c0.103,0.355,0.471,0.561,0.824,0.457  C79.079,58.133,79.283,57.764,79.184,57.41z M79.494,60.92c-0.354,0.102-0.561,0.473-0.457,0.826  c0.102,0.355,0.473,0.561,0.824,0.459c0.354-0.104,0.562-0.471,0.459-0.826C80.221,61.025,79.848,60.82,79.494,60.92z   M44.897,82.252c0.102,0.355,0.471,0.561,0.826,0.461c0.354-0.104,0.559-0.473,0.458-0.828c-0.102-0.354-0.473-0.559-0.826-0.457  C44.999,81.529,44.793,81.898,44.897,82.252z M80.54,58.449c-0.353,0.104-0.558,0.473-0.455,0.828  c0.101,0.354,0.472,0.559,0.824,0.457c0.354-0.102,0.559-0.469,0.457-0.826C81.266,58.555,80.895,58.35,80.54,58.449z   M81.574,56.029c-0.355,0.1-0.561,0.471-0.459,0.826c0.101,0.355,0.472,0.559,0.824,0.459c0.353-0.104,0.561-0.473,0.457-0.826  C82.297,56.131,81.928,55.925,81.574,56.029z M31.148,84.154c-0.165,0.24-0.314,0.488-0.45,0.738  C31.012,84.789,31.2,84.475,31.148,84.154z M32.854,86.4c0.355-0.102,0.561-0.469,0.46-0.826c-0.103-0.355-0.471-0.559-0.826-0.459  c-0.354,0.104-0.56,0.473-0.459,0.828C32.133,86.299,32.502,86.504,32.854,86.4z M33.889,83.979  c0.353-0.102,0.558-0.471,0.457-0.824c-0.1-0.357-0.471-0.563-0.825-0.461c-0.354,0.102-0.56,0.473-0.458,0.828  C33.166,83.877,33.535,84.08,33.889,83.979z M34.934,81.51c0.294-0.084,0.482-0.348,0.485-0.639  c-0.387,0.156-0.752,0.326-1.096,0.51C34.486,81.52,34.713,81.572,34.934,81.51z M32.268,88.043  c-0.102-0.355-0.472-0.559-0.828-0.457c-0.353,0.102-0.558,0.473-0.455,0.826c0.1,0.357,0.47,0.561,0.825,0.459  C32.166,88.77,32.369,88.398,32.268,88.043z M35.247,85.021c0.1,0.354,0.471,0.561,0.826,0.457c0.354-0.1,0.56-0.473,0.457-0.826  c-0.102-0.355-0.471-0.559-0.826-0.457C35.351,84.295,35.146,84.667,35.247,85.021z M30.069,86.416  c-0.079,0.258-0.143,0.523-0.197,0.787C30.076,87.041,30.174,86.764,30.069,86.416z M30.411,90.01  c-0.355,0.102-0.562,0.471-0.46,0.826c0.104,0.352,0.474,0.559,0.828,0.457s0.56-0.473,0.458-0.826  C31.135,90.111,30.765,89.906,30.411,90.01z M38.464,84.098c0.102,0.354,0.471,0.559,0.827,0.459  c0.353-0.102,0.558-0.472,0.457-0.826c-0.1-0.354-0.473-0.561-0.827-0.457C38.567,83.373,38.361,83.744,38.464,84.098z   M41.681,83.174c0.101,0.357,0.47,0.562,0.826,0.459c0.354-0.098,0.559-0.47,0.457-0.824c-0.1-0.355-0.47-0.561-0.825-0.459  C41.784,82.449,41.58,82.82,41.681,83.174z M43.538,81.213c0.356-0.104,0.561-0.473,0.458-0.826  c-0.102-0.354-0.471-0.562-0.825-0.459c-0.354,0.104-0.562,0.471-0.458,0.826C42.815,81.109,43.184,81.314,43.538,81.213z   M44.584,78.742c0.354-0.102,0.56-0.475,0.458-0.828c-0.091-0.316-0.4-0.516-0.72-0.479l-0.372,0.17  c-0.179,0.166-0.264,0.426-0.193,0.678C43.861,78.639,44.229,78.844,44.584,78.742z M41.367,79.662  c0.355-0.1,0.56-0.471,0.459-0.824c-0.029-0.098-0.076-0.182-0.138-0.252c-0.389,0.158-0.779,0.316-1.171,0.469  c0.002,0.051,0.008,0.102,0.025,0.15C40.643,79.561,41.015,79.768,41.367,79.662z M37.105,83.057c0.355-0.1,0.562-0.471,0.46-0.824  c-0.104-0.354-0.472-0.562-0.826-0.459c-0.355,0.102-0.563,0.471-0.46,0.824C36.383,82.953,36.75,83.158,37.105,83.057z   M38.151,80.586c0.355-0.1,0.561-0.471,0.458-0.824c-0.417,0.148-0.835,0.299-1.257,0.443C37.482,80.51,37.822,80.682,38.151,80.586  z M32.581,91.555c-0.354,0.102-0.559,0.473-0.458,0.828c0.1,0.355,0.472,0.561,0.826,0.457c0.354-0.102,0.56-0.471,0.458-0.826  C33.306,91.656,32.936,91.453,32.581,91.555z M40.324,82.135c0.354-0.1,0.558-0.471,0.458-0.828  c-0.102-0.352-0.472-0.558-0.827-0.457c-0.355,0.102-0.56,0.473-0.458,0.826C39.598,82.031,39.967,82.234,40.324,82.135z   M49.399,80.963c-0.104-0.354-0.472-0.561-0.827-0.457c-0.354,0.102-0.562,0.471-0.458,0.824c0.102,0.354,0.47,0.559,0.825,0.459  C49.294,81.686,49.5,81.318,49.399,80.963z M46.494,85.396c-0.355,0.102-0.561,0.473-0.459,0.826  c0.103,0.355,0.472,0.559,0.826,0.459c0.354-0.102,0.559-0.474,0.458-0.828C47.217,85.501,46.848,85.295,46.494,85.396z   M43.276,86.316c-0.354,0.104-0.561,0.475-0.458,0.828c0.102,0.355,0.474,0.562,0.827,0.459c0.355-0.102,0.558-0.471,0.457-0.826  C44.002,86.422,43.632,86.217,43.276,86.316z M45.448,87.865c-0.355,0.104-0.563,0.474-0.459,0.828  c0.103,0.354,0.471,0.559,0.826,0.457c0.355-0.1,0.56-0.473,0.459-0.826C46.171,87.969,45.802,87.766,45.448,87.865z M45.134,84.355  c-0.102-0.354-0.471-0.562-0.825-0.457C43.955,84,43.75,84.37,43.851,84.725c0.102,0.354,0.471,0.559,0.826,0.457  C45.03,85.081,45.236,84.709,45.134,84.355z M47.525,82.975c-0.353,0.104-0.559,0.471-0.457,0.826  c0.102,0.354,0.472,0.561,0.826,0.459s0.56-0.473,0.458-0.828C48.25,83.08,47.88,82.873,47.525,82.975z M50.743,82.053  c-0.355,0.102-0.561,0.473-0.46,0.824c0.104,0.357,0.472,0.562,0.826,0.459c0.353-0.1,0.56-0.471,0.457-0.826  C51.469,82.154,51.098,81.951,50.743,82.053z M49.709,84.473c-0.352,0.104-0.559,0.473-0.456,0.828  c0.101,0.355,0.472,0.559,0.825,0.457s0.559-0.471,0.457-0.826C50.434,84.578,50.063,84.371,49.709,84.473z M52.613,80.039  c-0.1-0.354-0.471-0.557-0.825-0.457c-0.354,0.102-0.56,0.471-0.459,0.826s0.473,0.562,0.827,0.457  C52.509,80.764,52.717,80.396,52.613,80.039z M40.06,87.242c-0.355,0.098-0.56,0.472-0.458,0.826c0.1,0.354,0.472,0.559,0.827,0.459  c0.355-0.104,0.56-0.475,0.457-0.828C40.785,87.344,40.415,87.141,40.06,87.242z M36.843,88.164  c-0.355,0.102-0.561,0.473-0.459,0.826c0.103,0.354,0.471,0.561,0.826,0.457c0.356-0.1,0.56-0.471,0.46-0.824  C37.566,88.266,37.198,88.062,36.843,88.164z M38.703,86.201c-0.102-0.355-0.472-0.562-0.827-0.459  c-0.355,0.102-0.56,0.47-0.457,0.824c0.1,0.355,0.471,0.561,0.826,0.459C38.599,86.924,38.804,86.553,38.703,86.201z M35.797,90.633  c-0.355,0.102-0.56,0.473-0.457,0.828c0.101,0.354,0.471,0.559,0.826,0.457c0.354-0.102,0.558-0.473,0.456-0.828  C36.522,90.738,36.15,90.533,35.797,90.633z M35.484,87.123c-0.101-0.355-0.469-0.561-0.826-0.459  c-0.354,0.104-0.56,0.471-0.458,0.828c0.103,0.354,0.473,0.557,0.827,0.455C35.382,87.85,35.588,87.477,35.484,87.123z   M33.627,89.086c-0.355,0.102-0.561,0.471-0.459,0.826c0.102,0.354,0.473,0.561,0.827,0.459c0.356-0.102,0.56-0.471,0.458-0.826  C34.352,89.189,33.982,88.984,33.627,89.086z M41.919,85.275c-0.102-0.354-0.472-0.56-0.826-0.457  c-0.354,0.102-0.561,0.473-0.459,0.828c0.102,0.354,0.471,0.559,0.827,0.457C41.814,86.002,42.02,85.631,41.919,85.275z   M39.015,89.711c-0.354,0.102-0.56,0.473-0.459,0.824c0.104,0.355,0.47,0.562,0.827,0.461c0.354-0.104,0.559-0.473,0.457-0.828  C39.739,89.814,39.369,89.607,39.015,89.711z M42.231,88.789c-0.355,0.102-0.56,0.471-0.457,0.828c0.1,0.354,0.47,0.559,0.827,0.457  c0.353-0.104,0.557-0.471,0.455-0.828C42.956,88.891,42.586,88.688,42.231,88.789z"/><text x="0" y="115" fill="#000000" font-size="5px" font-weight="bold" font-family="'Helvetica Neue', Helvetica, Arial-Unicode, Arial, Sans-serif">Created by Simon Child</text><text x="0" y="120" fill="#000000" font-size="5px" font-weight="bold" font-family="'Helvetica Neue', Helvetica, Arial-Unicode, Arial, Sans-serif">from the Noun Project</text></svg>
