<svg xmlns="http://www.w3.org/2000/svg" xmlns:xlink="http://www.w3.org/1999/xlink" version="1.1" x="0px" y="0px" viewBox="0 0 100 125" enable-background="new 0 0 100 100" xml:space="preserve"><path d="M94.9,32.7c-0.2-3-2.1-5.6-4.8-6.7c-1.5-0.6-4.1-0.7-6.3,0c-1.1-2.2-3.9-6.6-9.4-7.4c0-0.2,0-0.4-0.1-0.6  c-0.2-0.4-5-8.8-13.6-7.8c-4.3,0.5-18.1,5.9-30.9,13.7C18.4,30.8,4.9,41.4,5,52.5C5.1,67,8.5,77.6,14.3,81.6c1.8,1.2,3.8,1.8,6,1.8  c1.5,0,3-0.3,4.7-0.9c3.2,2.9,9.4,7.3,17.9,7.3c1.2,0,2.4-0.1,3.7-0.3C66.1,86.9,96.7,58.3,94.9,32.7z M31.5,71.1c0,0-5.6-2.1-6-6.1  c0,0-3-0.1-3.8,4.1c0,0-1.3-4.5,3.2-5.3c0,0-5.9-3.3-4.2-8.4c0,0,0.4,4.9,5,7.2c0,0-0.1-5,2.6-6.5c0,0-1.8,4.2-1.1,7.2  c0,0,4.6,2.8,7.3,0.5c0,0-0.9,3.6-7.5,0.9C27,64.7,26.9,67.9,31.5,71.1z M51.2,43.1c1.6,2,3.1,2.8,4,2.8c0.1,0,0.2,0,0.3,0  c0.5-0.1,0.7-0.6,0.7-1c0.2-1.4-0.7-3.7-4.1-5.8l0,0c-0.7-0.5-3.6-2.4-4.2-2.9l0,0c-2.4-2.1-3.4-5-2.3-7.4c0.4-1,1.9-3.3,5.9-3.3  c0.4,0,0.7,0,1.1,0.1c4.8,0.5,8,3.6,10.3,6c1,1,2.5,2.4,3.1,2.4c0,0,0,0,0,0c0,0,0.5,0,1.4-1.3c0.1-0.1,0.1-0.2,0.1-0.2  c-0.1-0.8-2.8-2.7-4-3.5c-2.8-1.9-6.3-4.3-4.6-7.5c1-1.7,2.7-2.8,4.9-3.1c0.3,0,0.6-0.1,0.9-0.1c3.8,0,8.3,2.5,12.4,7  c0.7,0.8,0.9,2.1,0.2,2.9c-0.4,0.6-1.1,0.8-1.7,0.8c-0.6,0-1.2-0.2-1.6-0.7c-3.8-4.2-7.2-5.7-9.3-5.7c-0.2,0-0.3,0-0.4,0  c0,0,0,0,0,0c-0.9,0.1-1.1,0.7-0.3,1.3c0.6,0.5,1.4,1,2,1.4c2.7,1.8,5.4,3.7,5.9,6.3c0.1,0.8,0.1,2.1-0.9,3.5  c-1.4,1.9-2.9,2.9-4.5,3c-0.1,0-0.2,0-0.4,0c-2.4,0-4.2-1.8-6.1-3.7c-2.1-2.1-4.4-4.4-7.7-4.7c-0.2,0-0.5,0-0.7,0  c-1.1,0-1.8,0.3-1.9,0.6c-0.2,0.4,0.1,1.4,1.1,2.4c0.6,0.4,3.5,2.4,3.8,2.6c5.1,3.2,6.4,7.3,6,10.1c-0.3,2.2-1.8,4-3.9,4.5  c-0.3,0.1-0.8,0.2-1.4,0.2c-1.8,0-4.5-0.8-7.4-4.4c-3.7-4.6-9.1-5.1-11.2-5.1c-0.1,0-0.2,0-0.3,0c-1.3,0-2.3,0.2-3,0.5  c-0.5,0.2-0.5,0.8-0.1,1.1c0.3,0.2,0.8,0.4,1.3,0.6C47.7,48.4,46.8,58.5,46.7,59c-0.1,1.1-1.1,2-2.2,2c-0.1,0-0.1,0-0.2,0  c-1.2-0.1-2.1-1.2-1.9-2.4c0-0.3,0.4-7.5-9.5-11.7c-3.5-1.5-5.2-3.3-5.1-5.5c0.1-1.9,1.6-3.5,4.1-4.3c1.3-0.4,2.9-0.7,4.8-0.7  C41.3,36.4,47.1,38,51.2,43.1z M77.1,68.4c-9.6,10.4-21.7,17.9-30.8,19.2c-13.6,1.9-22-8.8-22.1-8.9c-0.4-0.5-1-0.5-1.5-0.2  c-0.5,0.4-0.5,1-0.2,1.5c0.1,0.1,0.3,0.4,0.8,0.9c-3,0.8-5.6,0.5-7.8-1c-5.2-3.5-8.3-13.8-8.4-27.4C7,33.7,52.8,13.1,60.9,12.2  c6.1-0.7,10.1,4.5,11.2,6.2c-0.1,0-0.1,0-0.2,0c-2.4-1.4-4.9-2.1-7.2-2.1c-0.4,0-0.8,0-1.2,0.1c-2.9,0.3-5.2,1.8-6.5,4.2  c-0.5,0.8-1,2.2-0.6,3.8c-1.1-0.4-2.3-0.7-3.7-0.9c-0.5,0-0.9-0.1-1.3-0.1c-5.3,0-7.2,3.2-7.8,4.5c-0.8,1.8-0.8,3.8,0,5.7  c-0.6,0.4-1.3,0.8-1.9,1.3c-2.1-0.5-3.9-0.6-5-0.6c-2,0-3.9,0.3-5.5,0.8c-3.4,1.1-5.5,3.4-5.6,6.2c0,1.1,0.2,2.4,1.2,3.8  c-1.9,1.4-3.7,2.7-5.3,4c0,0-3.2,3-4.5,7.5c-0.4-13.4,14.8-23.5,15-23.6c0.5-0.3,0.6-1,0.3-1.4c-0.3-0.5-1-0.6-1.4-0.3  c-0.2,0.1-22.2,14.8-14.1,33c0.1,0.2,0.2,0.4,0.4,0.5c2.8,9,14.6,14.5,26,3.3l40.2-39.7c0.1,0,0.2,0,0.3-0.1  c1.9-0.9,4.6-0.7,5.7-0.3c1.9,0.7,3.3,2.6,3.5,4.9C93.6,43.9,87.9,56.8,77.1,68.4z"/></svg>