<svg xmlns="http://www.w3.org/2000/svg" xmlns:xlink="http://www.w3.org/1999/xlink" xml:space="preserve" style="shape-rendering:geometricPrecision;text-rendering:geometricPrecision;image-rendering:optimizeQuality;" viewBox="0 0 0.333331 0.41666375" x="0px" y="0px" fill-rule="evenodd" clip-rule="evenodd"><defs><style type="text/css">
   
    .fil0 {fill:#1F1A17;fill-rule:nonzero}
   
  </style></defs><g><path class="fil0" d="M0.168224 0.105811c0.0616811,0 0.0928307,0.0749449 0.0491378,0.118638 -0.043689,0.043689 -0.118634,0.0125433 -0.118634,-0.0491417 0,-0.0383701 0.031122,-0.0694961 0.0694961,-0.0694961zm0.0364882 0.0330079c-0.0324252,-0.0324291 -0.0880906,-0.00933465 -0.0880906,0.0364882 0,0.0458307 0.0556654,0.0689134 0.0880906,0.0364882 0.0201535,-0.0201496 0.0201535,-0.0528228 0,-0.0729764z"/><path class="fil0" d="M0.168224 0.0814055c0.0833504,0 0.125429,0.101264 0.0663976,0.160299 -0.0590315,0.0590315 -0.160299,0.0169567 -0.160299,-0.0663976 0,-0.0518504 0.0420512,-0.0939016 0.0939016,-0.0939016zm0.0632323 0.0306693c-0.0562126,-0.0562165 -0.152661,-0.0161575 -0.152661,0.0632323 0,0.0793898 0.0964488,0.119449 0.152661,0.0632323 0.0349291,-0.0349252 0.0349291,-0.0915394 0,-0.126465z"/><path class="fil0" d="M0.273445 0.0432559l-0.000917323 0.0656299c-0.000287402,0.0331535 0.0114488,0.0318071 0.020126,0.0323425l-0.00284252 0.140862c0.00216535,0.0118701 0.0103228,0.00881102 0.0118307,-1.5748e-005l-0.00285039 -0.14124c0.00698819,-0.000106299 0.0202756,0.0013189 0.0201339,-0.0319724l-0.00092126 -0.0656063 -0.00276772 0 0 0.0588701 -0.0177165 5.11811e-005 -0.000653543 -0.0589213 -0.00244882 0 -0.000602362 0.0589213 -0.0175984 -5.11811e-005 0 -0.0588701 -0.00277165 0zm-0.00537402 0.0655472l0.000996063 -0.0709921 0.011622 0 0 0.0589094 0.00872441 2.3622e-005 0.000606299 -0.0589331 0.0112402 0 0.000653543 0.0589331 0.00884646 -2.3622e-005 0 -0.0589094 0.011626 0 0.000996063 0.0710433c-0.000177165,0.0336654 -0.0122559,0.0368976 -0.0200276,0.0372992l0.00261811 0.137386c-0.00333465,0.0150079 -0.0171457,0.0155866 -0.0205,-3.14961e-005l0.00261811 -0.13713c-0.00878346,-0.00061811 -0.0200197,-0.00314567 -0.0200197,-0.0375748z"/><path class="fil0" d="M0.0458622 0.0500472c-0.00222047,-0.00987008 -0.0104685,-0.00788583 -0.0118346,-2.75591e-005l0.00292126 0.143402c-0.0371063,-7.48031e-005 -0.024689,0.0969252 0.00298031,0.096685 0.0249724,-0.000216535 0.0354488,-0.0964449 0.00528346,-0.0966929l-0.00227559 -1.5748e-005 0.0029252 -0.14335zm0.0044685 -0.000484252l-0.00282677 0.138594c0.0339055,0.00461811 0.0222244,0.107276 -0.00755118,0.107366 -0.0323228,0.000102362 -0.0438583,-0.103354 -0.00757087,-0.107406l-0.00266535 -0.13963c0.00342126,-0.0144724 0.0185354,-0.0122913 0.0206142,0.0010748z"/></g><text x="0" y="15.333331" fill="#000000" font-size="5px" font-weight="bold" font-family="'Helvetica Neue', Helvetica, Arial-Unicode, Arial, Sans-serif">Created by Abdul Wahhab</text><text x="0" y="20.333331" fill="#000000" font-size="5px" font-weight="bold" font-family="'Helvetica Neue', Helvetica, Arial-Unicode, Arial, Sans-serif">from the Noun Project</text></svg>