<svg xmlns="http://www.w3.org/2000/svg" xmlns:xlink="http://www.w3.org/1999/xlink" xmlns:a="http://ns.adobe.com/AdobeSVGViewerExtensions/3.0/" version="1.1" x="0px" y="0px" viewBox="-6.663 -7 100 125" overflow="visible" enable-background="new -6.663 -7 100 100" xml:space="preserve"><path d="M45.879,33.167c0-2.14-3.498-3.875-7.812-3.875s-7.812,1.735-7.812,3.875c0,0.655,0.331,1.271,0.909,1.812  c-0.579,0.541-0.909,1.157-0.909,1.812c0,2.14,3.498,3.875,7.812,3.875s7.812-1.735,7.812-3.875c0-0.655-0.331-1.271-0.909-1.812  C45.548,34.439,45.879,33.823,45.879,33.167z M38.066,39.667c-3.899,0-6.812-1.518-6.812-2.875c0-0.401,0.26-0.816,0.721-1.202  c1.432,0.884,3.627,1.452,6.092,1.452s4.66-0.568,6.092-1.452c0.46,0.386,0.721,0.801,0.721,1.202  C44.879,38.149,41.966,39.667,38.066,39.667z"/><path d="M82.688,18.188l-0.044-0.021l-1.036-0.509l-4.57-2.243L47.896,1.111l-0.799-0.392c-0.335-0.144-0.684-0.26-1.038-0.362  C45.273,0.13,44.445,0,43.587,0c-4.924,0-8.917,3.992-8.917,8.917c0,0.322,0.019,0.64,0.052,0.953  c0.094,0.886,0.323,1.732,0.658,2.521l-0.323,0.364c-0.666,0.276-1.179,0.706-1.513,1.082L31.7,15.924  c-3.348,0.438-5.821,1.945-5.821,3.743c0,0.655,0.331,1.271,0.909,1.812c-0.174,0.162-0.316,0.333-0.443,0.508l-13.539,15.33  c-3.275,0.461-5.677,1.952-5.677,3.725c0,0.629,0.311,1.22,0.847,1.745l-7.513,8.506l-0.042,0.054C0.14,51.766-0.002,52.2,0,52.615  c0.016,0.408,0.146,0.755,0.337,1.052v8.001c0,1.104,0.896,2,2,2l6.624-2.039v17.435C8.961,80.132,9.828,81,10.9,81  c1.07,0,1.938-0.867,1.938-1.937V60.435l1.625-0.5v1.002c0,1,0.81,1.812,1.812,1.813c1.001-0.002,1.813-0.813,1.813-1.813v-2.118  l28.117-8.656l4.007-1.233v6.633c0,1.347,1.092,2.438,2.438,2.438c1.345,0,2.437-1.092,2.437-2.438v-8.134l27.084-8.261  c1.125-0.292,1.834-0.792,2.209-1.917c0,0,2.413-8.447,2.791-11.333C87.6,22.636,85.364,19.728,82.688,18.188z M66.408,29.465  c0.46,0.386,0.721,0.801,0.721,1.202c0,1.357-2.913,2.875-6.812,2.875s-6.812-1.518-6.812-2.875c0-0.401,0.261-0.816,0.721-1.202  c1.432,0.884,3.627,1.452,6.092,1.452S64.977,30.35,66.408,29.465z M27.084,22.663l0.448-0.508c0.024-0.021,0.042-0.043,0.067-0.064  c1.432,0.884,3.627,1.452,6.092,1.452s4.66-0.568,6.092-1.452c0.46,0.386,0.721,0.801,0.721,1.202c0,1.357-2.914,2.875-6.812,2.875  s-6.812-1.518-6.812-2.875C26.879,23.084,26.952,22.873,27.084,22.663z M8.85,43.465c1.432,0.885,3.627,1.452,6.092,1.452  s4.66-0.567,6.092-1.452c0.46,0.386,0.721,0.801,0.721,1.202c0,1.356-2.913,2.875-6.812,2.875s-6.812-1.519-6.812-2.875  C8.129,44.266,8.389,43.851,8.85,43.465z M74.839,33.12l-13.784,3.955l-0.973,0.279c0,0.007,0.004,0.013,0.004,0.02v3.251  c-0.002,0.55-0.447,0.997-0.999,0.999c-0.553-0.002-1-0.449-1-0.999l-0.001-1.659l-0.001-1.04l-0.999,0.287l-2,0.574l-1.001,0.287  v1.04l0.001,7.621l0.001,7.826c-0.002,0.795-0.645,1.436-1.438,1.438c-0.795-0.002-1.438-0.643-1.439-1.438V39.9l-0.999,0.287  l-4.7,1.349l-0.976,0.28c0.021,0.082,0.05,0.16,0.05,0.247v0.779l0.002,4.096c-0.002,0.586-0.476,1.062-1.063,1.063  c-0.586-0.002-1.062-0.478-1.062-1.063V42.41l-1,0.287l-23.375,6.707l-1,0.287v11.246c-0.002,0.449-0.365,0.812-0.814,0.812  c-0.447,0-0.812-0.363-0.812-0.812v-10.78l-1,0.287l-1.625,0.466l-1,0.287v27.866C11.835,79.581,11.417,79.999,10.9,80  c-0.518-0.002-0.938-0.42-0.939-0.938V51.736l-1,0.286l-6.213,1.783c-0.054,0.015-0.132,0.025-0.223,0.025  c-0.301,0.002-0.729-0.135-1.036-0.37c-0.312-0.239-0.489-0.526-0.489-0.846c0-0.183,0.055-0.403,0.229-0.678l5.974-6.765  c0.5,1.9,3.771,3.37,7.739,3.37c4.314,0,7.812-1.735,7.812-3.875c0-0.655-0.331-1.271-0.909-1.812  c0.578-0.541,0.909-1.157,0.909-1.812c0-2.14-3.498-3.875-7.812-3.875c-0.23,0-0.458,0.007-0.684,0.017l11.728-13.279  c0.594,1.848,3.813,3.262,7.706,3.262c4.314,0,7.812-1.735,7.812-3.875c0-0.655-0.331-1.271-0.909-1.812  c0.579-0.541,0.909-1.157,0.909-1.812c0-2.14-3.498-3.875-7.812-3.875c-0.187,0-0.369,0.007-0.552,0.014l1.155-1.307  c0.409-0.464,1.202-1.038,2.18-1.032c0.394,0,0.828,0.087,1.313,0.318L58.3,23.303c-3.335,0.441-5.796,1.946-5.796,3.74  c0,0.655,0.331,1.271,0.909,1.812c-0.578,0.541-0.909,1.157-0.909,1.812c0,2.14,3.498,3.875,7.812,3.875s7.812-1.735,7.812-3.875  c0-0.655-0.331-1.271-0.909-1.812c0.353-0.33,0.599-0.689,0.749-1.066l8.033,3.728c0.151,0.27,0.197,0.47,0.197,0.605  C76.257,32.511,75.63,32.903,74.839,33.12z M82.587,21.875c-3.33,0.006-6.123,3.113-6.125,7.063c0,0.277-0.224,0.5-0.5,0.5  c-0.277,0-0.502-0.223-0.502-0.5c0.008-4.405,3.138-8.053,7.127-8.063c0.274,0,0.5,0.223,0.5,0.5S82.861,21.875,82.587,21.875z"/><circle cx="22.005" cy="35.667" r="0.583"/><circle cx="35.922" cy="14.501" r="0.583"/><circle cx="24.13" cy="35.459" r="0.917"/><circle cx="22.671" cy="33.083" r="1.458"/><circle cx="5.713" cy="49.375" r="0.792"/><circle cx="8.296" cy="49.208" r="1.167"/><circle cx="50.046" cy="37.126" r="0.625"/><circle cx="52.588" cy="36.917" r="0.958"/><circle cx="31.255" cy="42.25" r="0.958"/><circle cx="45.255" cy="28.002" r="0.625"/><circle cx="47.797" cy="27.794" r="0.958"/><circle cx="51.087" cy="34.5" r="1.458"/><circle cx="46.921" cy="21.002" r="0.792"/><circle cx="44.504" cy="19.333" r="1.458"/><circle cx="71.214" cy="31.542" r="0.792"/><circle cx="29.004" cy="42.502" r="0.792"/><circle cx="30.087" cy="28.586" r="0.792"/><text x="-6.663" y="108" fill="#000000" font-size="5px" font-weight="bold" font-family="'Helvetica Neue', Helvetica, Arial-Unicode, Arial, Sans-serif">Created by Jeremy Blake</text><text x="-6.663" y="113" fill="#000000" font-size="5px" font-weight="bold" font-family="'Helvetica Neue', Helvetica, Arial-Unicode, Arial, Sans-serif">from the Noun Project</text></svg>